<?xml version="1.0" encoding="UTF-8"?>
<svg width="225px" height="26px" viewBox="0 0 225 26" version="1.1" xmlns="http://www.w3.org/2000/svg" xmlns:xlink="http://www.w3.org/1999/xlink">
    <title>#Atom / Logo</title>
    <defs>
        <path d="M29.7092609,1.82964754e-13 L48.2127391,18.5034783 L40.9162174,25.8 L22.4127391,7.29652174 L29.7092609,1.82964754e-13 Z M7.29652174,1.82964754e-13 L25.8,18.5034783 L18.5034783,25.8 L5.32907052e-15,7.29652174 L7.29652174,1.82964754e-13 Z M111.84383,6 C115.970594,6 118.931774,9.0745 118.931774,12.8747925 L118.931774,12.9152642 C118.931774,16.7155566 115.932821,19.8291792 111.806057,19.8291792 C107.680642,19.8291792 104.719462,16.7533302 104.719462,12.9516887 L104.719462,12.9152642 C104.719462,9.11227358 107.718415,6 111.84383,6 Z M205.418713,6 C207.9401,6 209.449694,6.84046226 210.690826,8.06270755 L208.818336,10.2211981 C207.787657,9.28495283 206.738091,8.71160377 205.399826,8.71160377 C203.145553,8.71160377 201.521289,10.5827453 201.521289,12.8747925 L201.521289,12.9152642 C201.521289,15.2059623 203.107779,17.1162264 205.399826,17.1162264 C206.928308,17.1162264 207.863204,16.5051038 208.915468,15.5499717 L210.78526,17.4413491 C209.410572,18.9118208 207.88344,19.8291792 205.304043,19.8291792 C201.368845,19.8291792 198.446789,16.7924528 198.446789,12.9516887 L198.446789,12.9152642 C198.446789,9.11227358 201.312185,6 205.418713,6 Z M159.729539,6.03831321 C161.678925,6.03831321 163.340963,6.64943585 164.696765,7.73677547 L163.168284,9.95327547 C161.983812,9.13304906 160.819576,8.63524717 159.691765,8.63524717 C158.565303,8.63524717 157.973067,9.15058679 157.973067,9.80083208 L157.973067,9.83860566 C157.973067,10.7168415 158.545067,11.0041906 160.85735,11.5964264 C163.570303,12.301983 165.098784,13.2773509 165.098784,15.6071717 L165.098784,15.6462943 C165.098784,18.2998887 163.07385,19.7905962 160.188218,19.7905962 C158.163284,19.7905962 156.119463,19.0836906 154.515435,17.6509925 L156.25302,15.5693981 C157.457727,16.5623038 158.717746,17.1923132 160.246227,17.1923132 C161.449586,17.1923132 162.175378,16.7160962 162.175378,15.9322943 L162.175378,15.8945208 C162.175378,15.1498415 161.716699,14.7667094 159.482661,14.1933604 C156.788595,13.5066906 155.049661,12.7606623 155.049661,10.1057189 L155.049661,10.0679453 C155.049661,7.64234151 156.999048,6.03831321 159.729539,6.03831321 Z M93.4413491,6.1906217 L96.4403019,15.2819142 L99.2099151,6.22839528 L102.285764,6.22839528 L97.7205566,19.6960274 L95.1613962,19.6960274 L92.142,10.947 L89.125717,19.6960274 L86.5652075,19.6960274 L82,6.22839528 L85.1513962,6.22839528 L87.9210094,15.2819142 L90.9213113,6.1906217 L93.4413491,6.1906217 Z M129.273237,6.22933962 C130.973048,6.22933962 132.291076,6.7055566 133.169312,7.58379245 C133.915341,8.32982075 134.31601,9.37938679 134.31601,10.6407547 L134.31601,10.6785283 C134.31601,12.8370189 133.150425,14.1941698 131.450614,14.8241792 L134.71668,19.5998396 L131.277935,19.5998396 L128.412539,15.3206321 L126.101605,15.3206321 L126.101605,19.5998396 L123.159312,19.5998396 L123.159312,6.22933962 L129.273237,6.22933962 Z M142.415207,6.2288 L142.415207,12.0742623 L147.839763,6.2288 L151.393178,6.2288 L145.948386,11.901583 L151.641405,19.5993 L148.106876,19.5993 L143.962575,13.9062811 L142.415207,15.5116585 L142.415207,19.5993 L139.472914,19.5993 L139.472914,6.2288 L142.415207,6.2288 Z M175.031213,6.2288 C178.220383,6.2288 180.149534,8.1188283 180.149534,10.852017 L180.149534,10.8897906 C180.149534,13.9831774 177.741468,15.5872057 174.743864,15.5872057 L172.508477,15.5872057 L172.508477,19.5993 L169.567534,19.5993 L169.567534,6.2288 L175.031213,6.2288 Z M224.834336,6.2288 L224.834336,8.84462075 L217.670845,8.84462075 L217.670845,11.5575736 L223.974987,11.5575736 L223.974987,14.1747434 L217.670845,14.1747434 L217.670845,16.9834792 L224.930119,16.9834792 L224.930119,19.5993 L214.748789,19.5993 L214.748789,6.2288 L224.834336,6.2288 Z M190.195958,6.13261226 L195.926751,19.5988953 L192.852251,19.5988953 L191.628657,16.6012915 L185.97476,16.6012915 L184.752515,19.5988953 L181.752213,19.5988953 L187.483006,6.13261226 L190.195958,6.13261226 Z M111.806057,8.71160377 C109.437113,8.71160377 107.793962,10.5827453 107.793962,12.8747925 L107.793962,12.9152642 C107.793962,15.2059623 109.476236,17.1162264 111.84383,17.1162264 C114.212774,17.1162264 115.855925,15.2450849 115.855925,12.9516887 L115.855925,12.9152642 C115.855925,10.6218679 114.175,8.71160377 111.806057,8.71160377 Z M52.1222609,0.000391304348 L59.4187826,7.29691304 L52.1222609,14.5934348 L44.8257391,7.29691304 L52.1222609,0.000391304348 Z M188.802383,9.66714057 L187.024326,14.0030085 L190.577742,14.0030085 L188.802383,9.66714057 Z M174.781638,8.8837434 L172.508477,8.8837434 L172.508477,12.9713849 L174.838298,12.9713849 C176.310119,12.9713849 177.169468,12.0931491 177.169468,10.9464509 L177.169468,10.9086774 C177.169468,9.59064906 176.252109,8.8837434 174.781638,8.8837434 Z M129.02501,8.88293396 L126.101605,8.88293396 L126.101605,12.7236981 L129.081671,12.7236981 C130.514369,12.7236981 131.335944,11.958783 131.335944,10.8323208 L131.335944,10.7931981 C131.335944,9.53317925 130.457708,8.88293396 129.02501,8.88293396 Z" id="path-1"></path>
    </defs>
    <g id="Assets" stroke="none" stroke-width="1" fill="none" fill-rule="evenodd">
        <g id="#Atom-/-Logo">
            <mask id="mask-2" fill="white">
                <use xlink:href="#path-1"></use>
            </mask>
            <use id="Mask" fill="#FFFFFF" xlink:href="#path-1"></use>
            <g id="Group" mask="url(#mask-2)">
                <g transform="translate(0.000000, 0.000000)" id="Colors/Cyan">
                    <g transform="translate(0.000000, 0.000000)">
                        <rect id="Colors/Dark" fill="#FFFFFF" x="0" y="0" width="225" height="26"></rect>
                    </g>
                </g>
            </g>
        </g>
    </g>
</svg>